<svg width="512" height="768" viewBox="0 0 512 768" xmlns="http://www.w3.org/2000/svg">
<defs>
  <linearGradient id="bg" x1="0" y1="0" x2="1" y2="1"><stop offset="0" stop-color="#1A1C24"/><stop offset="1" stop-color="#0B0C11"/></linearGradient>
  <radialGradient id="glow" cx="0.5" cy="0.45" r="0.65"><stop offset="0" stop-color="#6F7583" stop-opacity="0.22"/><stop offset="1" stop-color="#0B0C11" stop-opacity="0"/></radialGradient>
</defs>
<rect width="512" height="768" rx="38" fill="url(#bg)"/>
<rect x="14" y="14" width="484" height="740" rx="30" fill="none" stroke="#6F7583" stroke-width="6" stroke-opacity="0.85"/>
<rect x="30" y="30" width="452" height="708" rx="26" fill="url(#glow)" stroke="#6F7583" stroke-width="2" stroke-opacity="0.22"/>
<g opacity="0.16" fill="#6F7583"><rect x="70" y="120" width="34" height="520" rx="10" transform="rotate(28 70 120)"/><rect x="160" y="132" width="34" height="520" rx="10" transform="rotate(28 160 132)"/><rect x="250" y="144" width="34" height="520" rx="10" transform="rotate(28 250 144)"/><rect x="340" y="156" width="34" height="520" rx="10" transform="rotate(28 340 156)"/></g>
<text x="96" y="116" text-anchor="middle" font-size="56" fill="#EDF2FF" opacity="0.94">♠️</text>
<text x="416" y="116" text-anchor="middle" font-size="56" fill="#EDF2FF" opacity="0.94">♠️</text>
<text x="96" y="640" text-anchor="middle" font-size="56" fill="#EDF2FF" opacity="0.94">♠️</text>
<text x="416" y="640" text-anchor="middle" font-size="56" fill="#EDF2FF" opacity="0.94">♠️</text>
</svg>