<svg width="512" height="768" viewBox="0 0 512 768" xmlns="http://www.w3.org/2000/svg">
<defs>
  <linearGradient id="bg" x1="0" y1="0" x2="1" y2="1"><stop offset="0" stop-color="#0F7B88"/><stop offset="1" stop-color="#0E5560"/></linearGradient>
  <radialGradient id="glow" cx="0.5" cy="0.45" r="0.65"><stop offset="0" stop-color="#7DEBFF" stop-opacity="0.22"/><stop offset="1" stop-color="#0E5560" stop-opacity="0"/></radialGradient>
</defs>
<rect width="512" height="768" rx="38" fill="url(#bg)"/>
<rect x="14" y="14" width="484" height="740" rx="30" fill="none" stroke="#7DEBFF" stroke-width="6" stroke-opacity="0.85"/>
<rect x="30" y="30" width="452" height="708" rx="26" fill="url(#glow)" stroke="#7DEBFF" stroke-width="2" stroke-opacity="0.22"/>
<g opacity="0.16" stroke="#7DEBFF" stroke-width="5" fill="none"><path d="M72 218c44 -28 88 -28 132 0s88 28 132 0s88 -28 132 0"/><path d="M72 330c44 -28 88 -28 132 0s88 28 132 0s88 -28 132 0"/><path d="M72 442c44 -28 88 -28 132 0s88 28 132 0s88 -28 132 0"/></g>
<text x="96" y="116" text-anchor="middle" font-size="56" fill="#EDFFFF" opacity="0.94">🌊</text>
<text x="416" y="116" text-anchor="middle" font-size="56" fill="#EDFFFF" opacity="0.94">🌊</text>
<text x="96" y="640" text-anchor="middle" font-size="56" fill="#EDFFFF" opacity="0.94">🌊</text>
<text x="416" y="640" text-anchor="middle" font-size="56" fill="#EDFFFF" opacity="0.94">🌊</text>
</svg>