<svg width="512" height="768" viewBox="0 0 512 768" xmlns="http://www.w3.org/2000/svg">
<rect width="512" height="768" rx="36" fill="#7F111B"/>
<rect x="18" y="18" width="476" height="732" rx="28" fill="#B31A29" stroke="#FF8B83" stroke-opacity="0.68" stroke-width="6"/>
<rect x="42" y="42" width="428" height="684" rx="24" fill="#7F111B" fill-opacity="0.22"/>
<g opacity="0.18" fill="#FF8B83"><rect x="98" y="182" width="18" height="106" rx="9" transform="rotate(28 98 182)"/><rect x="322" y="126" width="18" height="138" rx="9" transform="rotate(18 322 126)"/><rect x="366" y="466" width="18" height="118" rx="9" transform="rotate(-24 366 466)"/><rect x="144" y="512" width="18" height="92" rx="9" transform="rotate(-18 144 512)"/></g>
<circle cx="256" cy="356" r="160" fill="rgba(255,139,131,0.16)" stroke="#FF8B83" stroke-opacity="0.72" stroke-width="12"/>
<circle cx="256" cy="356" r="114" fill="#B31A29" fill-opacity="0.34" stroke="#FF8B83" stroke-opacity="0.34" stroke-width="4"/>
<text x="256" y="422" text-anchor="middle" font-size="214" fill="#FFF6EF" stroke="rgba(255,209,176,0.38)" stroke-width="6" paint-order="stroke fill">🔥</text>
<rect x="92" y="598" width="328" height="78" rx="26" fill="#7F111B" fill-opacity="0.46" stroke="#FF8B83" stroke-opacity="0.34" stroke-width="4"/>
<text x="256" y="646" text-anchor="middle" font-size="32" fill="#FFF5F5" font-weight="800" opacity="0.98">Fire Engine</text>
</svg>