<svg width="512" height="768" viewBox="0 0 512 768" xmlns="http://www.w3.org/2000/svg">
<defs>
  <linearGradient id="bg" x1="0" y1="0" x2="1" y2="1"><stop offset="0" stop-color="#67784A"/><stop offset="1" stop-color="#465236"/></linearGradient>
  <radialGradient id="glow" cx="0.5" cy="0.45" r="0.65"><stop offset="0" stop-color="#C8D89A" stop-opacity="0.22"/><stop offset="1" stop-color="#465236" stop-opacity="0"/></radialGradient>
</defs>
<rect width="512" height="768" rx="38" fill="url(#bg)"/>
<rect x="14" y="14" width="484" height="740" rx="30" fill="none" stroke="#C8D89A" stroke-width="6" stroke-opacity="0.85"/>
<rect x="30" y="30" width="452" height="708" rx="26" fill="url(#glow)" stroke="#C8D89A" stroke-width="2" stroke-opacity="0.22"/>
<g opacity="0.16" fill="#C8D89A"><path d="M140 450c66 -144 176 -194 176 -194s10 122 -84 220c-48 50 -92 44 -92 44Z"/><path d="M312 238c74 38 118 114 118 114s-88 28 -164 -12c-54 -28 -76 -80 -76 -80s54 -38 122 -22Z"/></g>
<text x="96" y="116" text-anchor="middle" font-size="56" fill="#F2F8E6" opacity="0.94">🌿</text>
<text x="416" y="116" text-anchor="middle" font-size="56" fill="#F2F8E6" opacity="0.94">🌿</text>
<text x="96" y="640" text-anchor="middle" font-size="56" fill="#F2F8E6" opacity="0.94">🌿</text>
<text x="416" y="640" text-anchor="middle" font-size="56" fill="#F2F8E6" opacity="0.94">🌿</text>
</svg>