<svg width="512" height="768" viewBox="0 0 512 768" xmlns="http://www.w3.org/2000/svg">
<rect width="512" height="768" rx="36" fill="#132342"/>
<rect x="18" y="18" width="476" height="732" rx="28" fill="#1D3361" stroke="#7FA8FF" stroke-opacity="0.68" stroke-width="6"/>
<rect x="42" y="42" width="428" height="684" rx="24" fill="#132342" fill-opacity="0.22"/>
<g opacity="0.18" fill="#7FA8FF"><circle cx="110" cy="166" r="8"/><circle cx="390" cy="210" r="6"/><circle cx="158" cy="560" r="7"/><circle cx="360" cy="596" r="9"/><path d="M256 118 268 144 296 148 274 166 280 194 256 180 232 194 238 166 216 148 244 144Z"/></g>
<circle cx="256" cy="356" r="160" fill="rgba(127,168,255,0.16)" stroke="#7FA8FF" stroke-opacity="0.72" stroke-width="12"/>
<circle cx="256" cy="356" r="114" fill="#1D3361" fill-opacity="0.34" stroke="#7FA8FF" stroke-opacity="0.34" stroke-width="4"/>
<text x="256" y="422" text-anchor="middle" font-size="214" fill="#F1F6FF" stroke="rgba(127,168,255,0.32)" stroke-width="6" paint-order="stroke fill">🌙</text>
<rect x="92" y="598" width="328" height="78" rx="26" fill="#132342" fill-opacity="0.46" stroke="#7FA8FF" stroke-opacity="0.34" stroke-width="4"/>
<text x="256" y="646" text-anchor="middle" font-size="32" fill="#F1F6FF" font-weight="800" opacity="0.98">Midnight Blue</text>
</svg>