<svg width="512" height="768" viewBox="0 0 512 768" xmlns="http://www.w3.org/2000/svg">
<rect width="512" height="768" rx="36" fill="#0E2F7B"/>
<rect x="18" y="18" width="476" height="732" rx="28" fill="#1747B7" stroke="#6CD8FF" stroke-opacity="0.68" stroke-width="6"/>
<rect x="42" y="42" width="428" height="684" rx="24" fill="#0E2F7B" fill-opacity="0.22"/>
<g opacity="0.16" stroke="#6CD8FF" stroke-width="3"><path d="M104 124V644M184 124V644M264 124V644M344 124V644M424 124V644"/><path d="M88 180H440M88 276H440M88 372H440M88 468H440M88 564H440"/></g>
<circle cx="256" cy="356" r="160" fill="rgba(108,216,255,0.16)" stroke="#6CD8FF" stroke-opacity="0.72" stroke-width="12"/>
<circle cx="256" cy="356" r="114" fill="#1747B7" fill-opacity="0.34" stroke="#6CD8FF" stroke-opacity="0.34" stroke-width="4"/>
<text x="256" y="422" text-anchor="middle" font-size="214" fill="#F1F9FF" stroke="rgba(108,216,255,0.32)" stroke-width="6" paint-order="stroke fill">💠</text>
<rect x="92" y="598" width="328" height="78" rx="26" fill="#0E2F7B" fill-opacity="0.46" stroke="#6CD8FF" stroke-opacity="0.34" stroke-width="4"/>
<text x="256" y="646" text-anchor="middle" font-size="32" fill="#F1F9FF" font-weight="800" opacity="0.98">Neon Blue</text>
</svg>