<svg width="512" height="768" viewBox="0 0 512 768" xmlns="http://www.w3.org/2000/svg">
<defs>
  <linearGradient id="bg" x1="0" y1="0" x2="1" y2="1"><stop offset="0" stop-color="#1747B7"/><stop offset="1" stop-color="#0E2F7B"/></linearGradient>
  <radialGradient id="glow" cx="0.5" cy="0.45" r="0.65"><stop offset="0" stop-color="#6CD8FF" stop-opacity="0.22"/><stop offset="1" stop-color="#0E2F7B" stop-opacity="0"/></radialGradient>
</defs>
<rect width="512" height="768" rx="38" fill="url(#bg)"/>
<rect x="14" y="14" width="484" height="740" rx="30" fill="none" stroke="#6CD8FF" stroke-width="6" stroke-opacity="0.85"/>
<rect x="30" y="30" width="452" height="708" rx="26" fill="url(#glow)" stroke="#6CD8FF" stroke-width="2" stroke-opacity="0.22"/>
<g opacity="0.16" stroke="#6CD8FF" stroke-width="3" fill="none"><path d="M80 132V636"/><path d="M150 132V636"/><path d="M220 132V636"/><path d="M290 132V636"/><path d="M360 132V636"/><path d="M430 132V636"/><path d="M72 160H440"/><path d="M72 242H440"/><path d="M72 324H440"/><path d="M72 406H440"/><path d="M72 488H440"/></g>
<text x="96" y="116" text-anchor="middle" font-size="56" fill="#F1F9FF" opacity="0.94">💠</text>
<text x="416" y="116" text-anchor="middle" font-size="56" fill="#F1F9FF" opacity="0.94">💠</text>
<text x="96" y="640" text-anchor="middle" font-size="56" fill="#F1F9FF" opacity="0.94">💠</text>
<text x="416" y="640" text-anchor="middle" font-size="56" fill="#F1F9FF" opacity="0.94">💠</text>
</svg>