<svg width="512" height="768" viewBox="0 0 512 768" xmlns="http://www.w3.org/2000/svg">
<defs>
  <linearGradient id="bg" x1="0" y1="0" x2="1" y2="1">
    <stop offset="0" stop-color="#BF9830"/>
    <stop offset="1" stop-color="#8B6D1B"/>
  </linearGradient>
  <radialGradient id="glow" cx="0.5" cy="0.45" r="0.65">
    <stop offset="0" stop-color="#FFE08A" stop-opacity="0.22"/>
    <stop offset="1" stop-color="#8B6D1B" stop-opacity="0"/>
  </radialGradient>
</defs>
<rect width="512" height="768" rx="38" fill="url(#bg)"/>
<rect x="14" y="14" width="484" height="740" rx="30" fill="none" stroke="#FFE08A" stroke-width="6" stroke-opacity="0.85"/>
<rect x="30" y="30" width="452" height="708" rx="26" fill="url(#glow)" stroke="#FFE08A" stroke-width="2" stroke-opacity="0.22"/>
<g opacity="0.17" fill="#FFE08A"><path d="M256 176l48 48-48 48-48-48Z"/><path d="M154 314l34 34-34 34-34-34Z"/><path d="M358 314l34 34-34 34-34-34Z"/><path d="M256 452l40 40-40 40-40-40Z"/></g>
<text x="96" y="116" text-anchor="middle" font-size="56" fill="#FFF7DE" opacity="0.94">✨</text>
<text x="416" y="116" text-anchor="middle" font-size="56" fill="#FFF7DE" opacity="0.94">✨</text>
<text x="96" y="640" text-anchor="middle" font-size="56" fill="#FFF7DE" opacity="0.94">✨</text>
<text x="416" y="640" text-anchor="middle" font-size="56" fill="#FFF7DE" opacity="0.94">✨</text>
<text x="256" y="704" text-anchor="middle" font-size="28" fill="#FFF7DE" opacity="0.72" font-weight="700">Satin Gold</text>
</svg>