<svg width="512" height="768" viewBox="0 0 512 768" xmlns="http://www.w3.org/2000/svg">
<rect width="512" height="768" rx="36" fill="#8B6D1B"/>
<rect x="18" y="18" width="476" height="732" rx="28" fill="#BF9830" stroke="#FFE08A" stroke-opacity="0.68" stroke-width="6"/>
<rect x="42" y="42" width="428" height="684" rx="24" fill="#8B6D1B" fill-opacity="0.22"/>
<g opacity="0.18" fill="#FFE08A"><path d="M256 156 304 208 256 260 208 208Z"/><path d="M132 386 168 424 132 462 96 424Z"/><path d="M380 386 416 424 380 462 344 424Z"/><path d="M256 568 304 620 256 672 208 620Z"/></g>
<circle cx="256" cy="356" r="160" fill="rgba(255,224,138,0.16)" stroke="#FFE08A" stroke-opacity="0.72" stroke-width="12"/>
<circle cx="256" cy="356" r="114" fill="#BF9830" fill-opacity="0.34" stroke="#FFE08A" stroke-opacity="0.34" stroke-width="4"/>
<text x="256" y="422" text-anchor="middle" font-size="214" fill="#FFF7DE" stroke="rgba(255,224,138,0.32)" stroke-width="6" paint-order="stroke fill">✨</text>
<rect x="92" y="598" width="328" height="78" rx="26" fill="#8B6D1B" fill-opacity="0.46" stroke="#FFE08A" stroke-opacity="0.34" stroke-width="4"/>
<text x="256" y="646" text-anchor="middle" font-size="32" fill="#FFF7DE" font-weight="800" opacity="0.98">Satin Gold</text>
</svg>